<?xml version="1.0" encoding="utf-8"?>
<!-- Generator: Adobe Illustrator 24.1.2, SVG Export Plug-In . SVG Version: 6.00 Build 0)  -->
<svg version="1.1" id="Layer_1" xmlns="http://www.w3.org/2000/svg" xmlns:xlink="http://www.w3.org/1999/xlink" x="0px" y="0px"
	 viewBox="0 0 300 300" style="enable-background:new 0 0 300 300;" xml:space="preserve">
<g id="Layer_1_1_">
	<path d="M110.4,65.7c0.2-0.1,0.3-0.1,0.5-0.2L86.6,13.3l-0.9,0.4L110,65.9C110.1,65.8,110.2,65.8,110.4,65.7z"/>
	<path d="M65.7,188.6c-0.1-0.2-0.1-0.3-0.2-0.5l-52.1,24.3l0.4,0.9L65.9,189C65.8,188.9,65.8,188.8,65.7,188.6z"/>
	<path d="M188.6,233.3c-0.2,0.1-0.3,0.1-0.5,0.2l24.3,52.1l0.9-0.4L189,233.1C188.9,233.2,188.8,233.2,188.6,233.3z"/>
	<path d="M233.1,110c0.1,0.2,0.1,0.3,0.2,0.5c0.1,0.2,0.1,0.3,0.2,0.5l52.1-24.3l-0.4-0.9L233.1,110z"/>
</g>
<g id="Layer_6_copy_3">
	<path d="M237.8,181.8l51.7,18.8c-0.1,0.3-0.2,0.7-0.3,0.9l-51.7-18.8C237.6,182.5,237.7,182.1,237.8,181.8z"/>
	<path d="M117.1,237.4c0.3,0.1,0.7,0.2,0.9,0.3l-18.8,51.7c-0.3-0.1-0.7-0.2-0.9-0.3L117.1,237.4z"/>
	<path d="M10.4,99.1l51.7,18.8c-0.1,0.3-0.2,0.7-0.3,0.9L10.1,100C10.2,99.7,10.3,99.3,10.4,99.1z"/>
	<path d="M200.8,10.3L181.9,62c-0.3-0.1-0.7-0.2-0.9-0.3L199.8,10C200.1,10.1,200.5,10.2,200.8,10.3z"/>
</g>
<g id="Layer_1_copy_2">
	<g>
		<path d="M50.4,166.6c0,0.3,0.1,0.6,0.2,1l-39.5,6.9c0-0.3-0.1-0.6-0.2-1L50.4,166.6z"/>
		<path d="M167.5,249.4l6.9,39.5c-0.3,0-0.6,0.1-1,0.2l-6.9-39.5C166.8,249.6,167.1,249.6,167.5,249.4z"/>
		<path d="M288.7,124.7c0,0.3,0.1,0.7,0.2,1l-39.4,6.9c0-0.3-0.1-0.6-0.2-1L288.7,124.7z"/>
		<path d="M125.4,11.2l6.9,39.4c-0.3,0-0.6,0.1-1,0.2l-7-39.3C124.7,11.3,125.1,11.2,125.4,11.2z"/>
	</g>
	<g>
		<path d="M49.5,140.5c-0.1,0.4,0,0.7-0.1,1L9.6,138c0.1-0.4,0-0.7,0.1-1L49.5,140.5z"/>
		<path d="M141,250.5l-3.5,39.8c-0.4-0.1-0.7,0-1-0.1l3.5-39.9C140.4,250.5,140.7,250.5,141,250.5z"/>
		<path d="M290.5,161.6c-0.1,0.4,0,0.7-0.1,1l-39.8-3.5c0.1-0.4,0-0.7,0.1-1L290.5,161.6z"/>
		<path d="M162.1,9.5l-3.5,39.8c-0.4-0.1-0.7,0-1-0.1L161,9.4C161.5,9.5,161.7,9.5,162.1,9.5z"/>
	</g>
	<g>
		<path d="M67.5,91.8c-0.2,0.3-0.4,0.5-0.6,0.8L34.1,69.7c0.2-0.3,0.4-0.5,0.6-0.8L67.5,91.8z"/>
		<path d="M92,232.5L69,265.3c-0.3-0.2-0.5-0.4-0.8-0.6l22.9-32.7C91.4,232.3,91.6,232.4,92,232.5z"/>
		<path d="M265.7,230.5c-0.2,0.3-0.4,0.5-0.6,0.8l-32.7-22.9c0.2-0.3,0.4-0.5,0.6-0.8L265.7,230.5z"/>
		<path d="M230.7,34.3l-22.9,32.7c-0.3-0.2-0.5-0.4-0.8-0.6l22.9-32.7C230.2,34,230.4,34.2,230.7,34.3z"/>
	</g>
	<g>
		<path d="M85.2,72.5c-0.2,0.2-0.5,0.4-0.8,0.7L58.7,42.5c0.2-0.2,0.5-0.4,0.8-0.7L85.2,72.5z"/>
		<path d="M72.5,214.8l-30.6,25.7c-0.2-0.2-0.5-0.5-0.7-0.8l30.6-25.6C72.1,214.3,72.3,214.6,72.5,214.8z"/>
		<path d="M240.7,258c-0.2,0.2-0.5,0.4-0.8,0.7l-25.7-30.7c0.2-0.2,0.5-0.4,0.8-0.7L240.7,258z"/>
		<path d="M258,59.2L227.4,85c-0.2-0.2-0.4-0.5-0.7-0.8l30.6-25.7C257.5,58.8,257.7,59,258,59.2z"/>
	</g>
</g>
<g id="Layer_1_copy_3">
	<g>
		<path d="M47.7,186.2c0.1,0.3,0.2,0.7,0.3,0.9l-23.5,8.5c-0.1-0.3-0.2-0.7-0.3-0.9L47.7,186.2z"/>
		<path d="M187.1,252l8.5,23.5c-0.3,0.1-0.7,0.2-0.9,0.3l-8.5-23.5C186.4,252.2,186.8,252.1,187.1,252z"/>
		<path d="M275.2,103.4c0.1,0.3,0.3,0.6,0.3,0.9l-23.5,8.5c-0.1-0.3-0.2-0.7-0.3-0.9L275.2,103.4z"/>
		<path d="M104.3,24.6l8.5,23.5c-0.3,0.1-0.7,0.2-0.9,0.3l-8.5-23.5C103.6,24.8,104,24.7,104.3,24.6z"/>
	</g>
	<g>
		<path d="M45,177.2c0,0.3,0.2,0.7,0.2,1l-24.1,6.5c0-0.3-0.2-0.6-0.2-1L45,177.2z"/>
		<path d="M178,254.8l6.5,24.1c-0.3,0-0.7,0.2-1,0.2L177,255C177.3,255,177.7,254.9,178,254.8z"/>
		<path d="M278.7,114.6c0,0.3,0.2,0.7,0.2,1l-24.1,6.5c0-0.3-0.2-0.7-0.2-1L278.7,114.6z"/>
		<path d="M115.4,21.1l6.5,24.1c-0.3,0-0.7,0.2-1,0.2l-6.5-24.1C114.8,21.2,115,21.1,115.4,21.1z"/>
	</g>
	<g>
		<path d="M41.8,158.6c0,0.3,0.1,0.6,0,1l-24.9,2.2c0-0.3-0.1-0.6,0-1L41.8,158.6z"/>
		<path d="M159.4,258.1l2.2,24.9c-0.3,0-0.6,0.1-0.9,0.1l-2.2-24.9C158.6,258.2,158.9,258.2,159.4,258.1z"/>
		<path d="M282.9,137.6c0,0.3,0.1,0.6,0.1,0.9l-24.9,2.2c0-0.3-0.1-0.6-0.2-1L282.9,137.6z"/>
		<path d="M138.2,17l2.2,24.9c-0.3,0-0.6,0.1-0.9,0.1l-2.1-24.9C137.6,17.1,137.9,17.1,138.2,17z"/>
	</g>
	<g>
		<path d="M41.5,149.3c0,0.3,0,0.7,0,1l-25.1,0c0-0.3,0-0.7,0-1L41.5,149.3z"/>
		<path d="M149.9,258.5l0,25.1c-0.3,0-0.7,0-1,0l0-25.1C149.2,258.5,149.5,258.5,149.9,258.5z"/>
		<path d="M283.5,149.2c0,0.3,0,0.7,0,1l-25.1,0c0-0.3,0-0.7,0-1L283.5,149.2z"/>
		<path d="M149.9,16.5l0,25.1c-0.4-0.1-0.7,0-1,0l0-25.1C149.2,16.5,149.5,16.5,149.9,16.5z"/>
	</g>
	<g>
		<path d="M43.3,130.6c-0.1,0.4-0.2,0.6-0.2,1l-24.5-4.3c0.1-0.4,0.1-0.7,0.2-1L43.3,130.6z"/>
		<path d="M130.9,256.8l-4.3,24.6c-0.4-0.1-0.6-0.2-1-0.2l4.3-24.6C130.3,256.6,130.6,256.7,130.9,256.8z"/>
		<path d="M281.5,172.5c-0.1,0.4-0.2,0.6-0.2,1l-24.6-4.3c0.1-0.4,0.2-0.6,0.2-1L281.5,172.5z"/>
		<path d="M173,18.6l-4.4,24.6c-0.4-0.1-0.6-0.2-1-0.2l4.4-24.6C172.3,18.5,172.7,18.5,173,18.6z"/>
	</g>
	<g>
		<path d="M45.4,121.4c-0.1,0.4-0.2,0.6-0.2,1L21,115.9c0.1-0.4,0.2-0.6,0.2-1L45.4,121.4z"/>
		<path d="M121.7,254.8l-6.5,24.1c-0.4-0.1-0.6-0.2-1-0.2l6.5-24.1C121.1,254.5,121.4,254.6,121.7,254.8z"/>
		<path d="M279,183.9c-0.1,0.4-0.2,0.6-0.2,1l-24.2-6.5c0.1-0.4,0.2-0.6,0.3-1L279,183.9z"/>
		<path d="M184.3,21l-6.4,24.1c-0.4-0.1-0.6-0.2-1-0.2l6.4-24.1C183.7,20.9,183.9,21,184.3,21z"/>
	</g>
	<g>
		<path d="M51.9,103.7c-0.2,0.3-0.3,0.6-0.5,0.9L28.8,94.1c0.2-0.3,0.3-0.6,0.5-0.9L51.9,103.7z"/>
		<path d="M104,248.2l-10.5,22.6c-0.3-0.2-0.6-0.3-0.9-0.5l10.5-22.7C103.4,247.9,103.7,248.1,104,248.2z"/>
		<path d="M271.1,206c-0.2,0.3-0.3,0.6-0.5,0.9L248,196.3c0.2-0.3,0.3-0.6,0.4-1L271.1,206z"/>
		<path d="M206.2,29l-10.5,22.6c-0.3-0.2-0.6-0.3-1-0.4l10.5-22.7C205.7,28.7,205.9,28.8,206.2,29z"/>
	</g>
	<g>
		<path d="M56.2,95.4c-0.2,0.3-0.3,0.6-0.5,0.9L34.1,83.8c0.2-0.3,0.3-0.6,0.5-0.9L56.2,95.4z"/>
		<path d="M95.5,243.8L83,265.4c-0.3-0.2-0.6-0.3-0.9-0.5l12.5-21.6C95.1,243.5,95.3,243.7,95.5,243.8z"/>
		<path d="M265.7,216.4c-0.2,0.3-0.3,0.6-0.5,0.9l-21.6-12.5c0.2-0.3,0.3-0.6,0.5-0.9L265.7,216.4z"/>
		<path d="M216.6,34.3L204,56c-0.3-0.2-0.6-0.4-0.9-0.5l12.5-21.6C216,34.1,216.2,34.1,216.6,34.3z"/>
	</g>
	<g>
		<path d="M67.1,80.1c-0.2,0.2-0.4,0.5-0.6,0.7L47.2,64.7c0.2-0.2,0.4-0.5,0.6-0.7L67.1,80.1z"/>
		<path d="M80.1,233l-16,19.2c-0.2-0.2-0.5-0.4-0.7-0.6l16.1-19.2C79.6,232.6,79.9,232.8,80.1,233z"/>
		<path d="M252.5,235.6c-0.2,0.2-0.4,0.5-0.6,0.7l-19.2-16.1c0.2-0.2,0.4-0.5,0.6-0.7L252.5,235.6z"/>
		<path d="M235.7,47.6l-16,19.2c-0.2-0.2-0.5-0.4-0.7-0.6l16-19.2C235.1,47.2,235.4,47.4,235.7,47.6z"/>
	</g>
	<g>
		<path d="M73.5,73.2c-0.2,0.2-0.5,0.4-0.6,0.7L55.2,56.2c0.2-0.2,0.5-0.4,0.6-0.7L73.5,73.2z"/>
		<path d="M73.2,226.6l-17.7,17.6c-0.2-0.2-0.4-0.5-0.7-0.7l17.7-17.7C72.7,226.1,73,226.4,73.2,226.6z"/>
		<path d="M244.5,244.3c-0.2,0.2-0.5,0.4-0.7,0.7l-17.7-17.7c0.2-0.2,0.5-0.4,0.8-0.7L244.5,244.3z"/>
		<path d="M244.3,55.5l-17.7,17.7c-0.2-0.2-0.4-0.5-0.7-0.6l17.7-17.7C243.9,55,244.1,55.3,244.3,55.5z"/>
	</g>
	<g>
		<path d="M87.9,61c-0.3,0.1-0.6,0.4-0.8,0.6L72.7,41.2c0.2-0.2,0.6-0.4,0.8-0.6L87.9,61z"/>
		<path d="M61.1,212.2l-20.5,14.3c-0.2-0.2-0.4-0.6-0.6-0.8l20.5-14.3C60.7,211.6,60.9,211.9,61.1,212.2z"/>
		<path d="M226.7,259.3c-0.2,0.2-0.6,0.4-0.8,0.6l-14.3-20.6c0.2-0.2,0.5-0.3,0.8-0.6L226.7,259.3z"/>
		<path d="M259.3,73.3l-20.5,14.3c-0.2-0.2-0.3-0.5-0.6-0.8l20.5-14.3C258.9,72.8,259.1,73.1,259.3,73.3z"/>
	</g>
	<g>
		<path d="M95.8,56c-0.3,0.1-0.6,0.3-0.9,0.5L82.4,34.9c0.3-0.1,0.6-0.4,0.9-0.5L95.8,56z"/>
		<path d="M56,204.2l-21.6,12.5c-0.1-0.3-0.4-0.6-0.5-0.9l21.6-12.5C55.7,203.7,55.9,203.9,56,204.2z"/>
		<path d="M216.8,265.6c-0.3,0.1-0.6,0.4-0.9,0.5l-12.5-21.6c0.3-0.1,0.6-0.3,0.9-0.5L216.8,265.6z"/>
		<path d="M265.6,83.2L244,95.7c-0.1-0.3-0.3-0.6-0.5-0.9l21.6-12.5C265.3,82.7,265.5,82.9,265.6,83.2z"/>
	</g>
</g>
<g id="Layer_1_copy_4">
	<g>
		<path d="M44.8,192.5c0.1,0.3,0.3,0.6,0.4,0.9l-13.9,5.7c-0.1-0.3-0.3-0.6-0.4-0.9L44.8,192.5z"/>
		<path d="M193.4,254.9l5.7,13.9c-0.3,0.1-0.6,0.3-0.9,0.3l-5.7-13.9C192.8,255.1,193.1,255,193.4,254.9z"/>
		<path d="M268.3,99.9c0.1,0.3,0.3,0.6,0.4,0.9l-13.9,5.7c-0.1-0.3-0.3-0.6-0.4-0.9L268.3,99.9z"/>
		<path d="M100.8,31.3l5.7,13.9c-0.3,0.1-0.6,0.3-0.9,0.4l-5.7-13.9C100.2,31.6,100.5,31.4,100.8,31.3z"/>
	</g>
	<g>
		<path d="M41.5,183.3c0,0.3,0.2,0.7,0.3,0.9l-14.3,4.5c-0.1-0.3-0.2-0.7-0.3-0.9L41.5,183.3z"/>
		<path d="M184,258.3l4.5,14.3c-0.3,0.1-0.7,0.2-0.9,0.3l-4.5-14.3C183.5,258.4,183.8,258.4,184,258.3z"/>
		<path d="M272.2,110.4c0.1,0.3,0.2,0.7,0.3,0.9l-14.3,4.5c-0.1-0.3-0.2-0.7-0.3-0.9L272.2,110.4z"/>
		<path d="M111.3,27.5l4.5,14.3c-0.3,0.1-0.7,0.2-0.9,0.3l-4.5-14.3C110.6,27.7,111,27.5,111.3,27.5z"/>
	</g>
	<g>
		<path d="M39,173.7c0,0.3,0.1,0.6,0.2,1l-14.6,3.2c0-0.3-0.2-0.7-0.2-1L39,173.7z"/>
		<path d="M174.4,260.9l3.2,14.7c-0.3,0-0.7,0.2-1,0.2l-3.3-14.6C173.8,260.9,174.1,260.9,174.4,260.9z"/>
		<path d="M275.3,121.3c0,0.3,0.2,0.7,0.2,1l-14.7,3.2c0-0.3-0.1-0.6-0.2-1L275.3,121.3z"/>
		<path d="M122.1,24.6l3.2,14.7c-0.3,0-0.6,0.1-1,0.2L121,24.8C121.5,24.7,121.8,24.6,122.1,24.6z"/>
	</g>
	<g>
		<path d="M37.4,164c0,0.3,0.1,0.6,0.2,1l-14.9,2c0-0.3-0.1-0.6-0.1-0.9L37.4,164z"/>
		<path d="M164.6,262.6l2,14.9c-0.3,0-0.6,0.1-0.9,0.1l-2-14.9C164,262.6,164.3,262.6,164.6,262.6z"/>
		<path d="M277.3,132.5c0,0.3,0.1,0.6,0.2,1l-14.9,2c0-0.3-0.1-0.6-0.2-1L277.3,132.5z"/>
		<path d="M133.1,22.6l2,14.9c-0.3,0-0.6,0.1-1,0.2l-2-14.9C132.5,22.7,132.8,22.7,133.1,22.6z"/>
	</g>
	<g>
		<path d="M36.5,154.1c0,0.3,0,0.7,0,1l-14.9,0.7l0-1L36.5,154.1z"/>
		<path d="M154.8,263.4l0.6,15c-0.3,0-0.7,0-1,0l-0.7-15L154.8,263.4z"/>
		<path d="M278.3,143.7c0,0.3,0,0.7,0,1l-15,0.6c0-0.3,0-0.7,0-1L278.3,143.7z"/>
		<path d="M144.2,21.6l0.7,15c-0.3,0-0.7,0-1,0l-0.6-15C143.6,21.7,143.9,21.7,144.2,21.6z"/>
	</g>
	<g>
		<path d="M36.7,144.4c-0.1,0.4,0,0.7-0.1,1l-15-0.6c0-0.3,0-0.7,0.1-1L36.7,144.4z"/>
		<path d="M144.9,263.4l-0.6,15c-0.4-0.1-0.7,0-1-0.1l0.6-15C144.3,263.3,144.6,263.3,144.9,263.4z"/>
		<path d="M278.4,154.9c0,0.3,0,0.7-0.1,1l-15-0.6c0.1-0.4,0-0.7,0.1-1L278.4,154.9z"/>
		<path d="M155.5,21.7l-0.6,15c-0.4-0.1-0.7,0-1-0.1l0.6-15C154.8,21.6,155.1,21.6,155.5,21.7z"/>
	</g>
	<g>
		<path d="M37.6,134.5c-0.1,0.4-0.1,0.7-0.1,0.9l-14.9-2c0.1-0.4,0.1-0.7,0.1-0.9L37.6,134.5z"/>
		<path d="M135,262.5l-1.9,14.9c-0.4-0.1-0.7-0.1-0.9-0.1l1.8-14.9C134.3,262.4,134.7,262.4,135,262.5z"/>
		<path d="M277.5,166.1c-0.1,0.4-0.1,0.7-0.1,1l-14.8-2c0.1-0.4,0.1-0.7,0.1-1L277.5,166.1z"/>
		<path d="M166.6,22.5l-2,14.9c-0.4-0.1-0.7-0.1-0.9-0.1l1.9-14.9C165.9,22.5,166.3,22.6,166.6,22.5z"/>
	</g>
	<g>
		<path d="M39.4,124.9c-0.1,0.4-0.2,0.6-0.2,1l-14.6-3.2c0.1-0.4,0.2-0.6,0.2-1L39.4,124.9z"/>
		<path d="M125.3,260.7l-3.2,14.6c-0.4-0.1-0.6-0.2-1-0.2l3.2-14.6C124.7,260.6,124.9,260.7,125.3,260.7z"/>
		<path d="M275.6,177.2c-0.1,0.4-0.2,0.6-0.2,1l-14.6-3.2c0.1-0.4,0.2-0.6,0.2-1L275.6,177.2z"/>
		<path d="M177.6,24.6l-3.2,14.6c-0.4-0.1-0.6-0.2-1-0.2l3.2-14.6C177,24.4,177.3,24.5,177.6,24.6z"/>
	</g>
	<g>
		<path d="M42,115.4c-0.1,0.3-0.2,0.7-0.3,0.9l-14.2-4.5c0.1-0.4,0.2-0.7,0.3-0.9L42,115.4z"/>
		<path d="M115.7,258.1l-4.5,14.2c-0.4-0.1-0.7-0.2-0.9-0.3l4.5-14.3C115.1,258,115.4,258,115.7,258.1z"/>
		<path d="M272.7,188.1c-0.1,0.4-0.2,0.7-0.3,0.9l-14.2-4.5c0.1-0.3,0.2-0.7,0.3-0.9L272.7,188.1z"/>
		<path d="M188.4,27.5l-4.5,14.2c-0.4-0.1-0.7-0.2-0.9-0.3l4.5-14.3C187.8,27.2,188.1,27.3,188.4,27.5z"/>
	</g>
	<g>
		<path d="M45.3,106.1c-0.2,0.3-0.2,0.7-0.3,0.9l-13.9-5.7c0.1-0.3,0.2-0.7,0.3-0.9L45.3,106.1z"/>
		<path d="M106.4,254.7l-5.7,13.8c-0.3-0.2-0.7-0.2-0.9-0.3l5.8-13.8C105.8,254.5,106.1,254.6,106.4,254.7z"/>
		<path d="M268.8,198.7c-0.2,0.3-0.2,0.7-0.3,0.9l-13.8-5.8c0.2-0.3,0.3-0.6,0.3-0.9L268.8,198.7z"/>
		<path d="M198.9,31.3l-5.7,13.8c-0.3-0.1-0.6-0.3-0.9-0.3l5.8-13.8C198.3,31,198.6,31.1,198.9,31.3z"/>
	</g>
	<g>
		<path d="M49.6,97.3c-0.2,0.3-0.3,0.6-0.5,0.9l-13.3-6.9c0.2-0.3,0.3-0.6,0.5-0.9L49.6,97.3z"/>
		<path d="M97.5,250.5l-6.9,13.3c-0.3-0.2-0.6-0.3-0.9-0.5l6.9-13.3C96.9,250.2,97.2,250.3,97.5,250.5z"/>
		<path d="M264.1,209c-0.2,0.3-0.3,0.6-0.5,0.9l-13.3-6.9c0.2-0.3,0.3-0.6,0.5-0.9L264.1,209z"/>
		<path d="M209.1,35.9l-6.9,13.3c-0.3-0.2-0.6-0.3-0.9-0.5l6.9-13.3C208.6,35.6,208.9,35.8,209.1,35.9z"/>
	</g>
	<g>
		<path d="M54.5,88.7c-0.2,0.3-0.4,0.5-0.5,0.8l-12.7-8c0.2-0.3,0.4-0.6,0.5-0.8L54.5,88.7z"/>
		<path d="M88.9,245.6l-8.1,12.7c-0.3-0.2-0.5-0.4-0.8-0.6L88,245C88.3,245.2,88.6,245.4,88.9,245.6z"/>
		<path d="M258.5,218.8c-0.2,0.3-0.4,0.6-0.6,0.8l-12.7-8.1c0.2-0.3,0.4-0.5,0.6-0.8L258.5,218.8z"/>
		<path d="M218.9,41.5l-8.1,12.6c-0.3-0.2-0.6-0.4-0.9-0.5L218,41C218.3,41.2,218.6,41.3,218.9,41.5z"/>
	</g>
	<g>
		<path d="M60.1,80.7c-0.2,0.2-0.4,0.5-0.6,0.8l-11.9-9.1c0.2-0.3,0.4-0.5,0.6-0.8L60.1,80.7z"/>
		<path d="M80.8,239.9l-9.1,12c-0.3-0.2-0.5-0.4-0.8-0.6l9.1-11.9C80.3,239.5,80.5,239.8,80.8,239.9z"/>
		<path d="M252.1,227.9c-0.2,0.3-0.4,0.5-0.6,0.8l-11.9-9.1c0.2-0.2,0.4-0.5,0.6-0.8L252.1,227.9z"/>
		<path d="M228.1,47.9l-9.1,11.9c-0.2-0.2-0.5-0.4-0.8-0.6l9.1-11.9C227.6,47.5,227.8,47.8,228.1,47.9z"/>
	</g>
	<g>
		<path d="M66.5,73.2c-0.2,0.2-0.4,0.5-0.6,0.7l-11-10.2c0.2-0.2,0.4-0.5,0.6-0.7L66.5,73.2z"/>
		<path d="M73.2,233.6l-10.2,11c-0.2-0.2-0.5-0.4-0.7-0.6l10.1-11.1C72.7,233.2,73,233.3,73.2,233.6z"/>
		<path d="M244.9,236.6c-0.2,0.2-0.4,0.5-0.6,0.7l-11-10.2c0.2-0.2,0.5-0.4,0.6-0.7L244.9,236.6z"/>
		<path d="M236.7,55.2l-10.1,11.1l-0.7-0.6l10.2-11C236.2,54.7,236.4,55,236.7,55.2z"/>
	</g>
	<g>
		<path d="M73.4,66.2c-0.2,0.2-0.5,0.4-0.8,0.7L62.5,55.9c0.2-0.2,0.5-0.4,0.8-0.7L73.4,66.2z"/>
		<path d="M66.2,226.6l-11.1,10.1c-0.2-0.2-0.4-0.5-0.7-0.7l11.1-10.1C65.8,226.1,66,226.4,66.2,226.6z"/>
		<path d="M236.9,244.6c-0.2,0.2-0.5,0.4-0.8,0.7L226,234.3c0.2-0.2,0.5-0.4,0.8-0.7L236.9,244.6z"/>
		<path d="M244.6,63.1l-11.1,10.1c-0.2-0.2-0.4-0.5-0.7-0.7L244,62.4C244.2,62.6,244.4,62.8,244.6,63.1z"/>
	</g>
	<g>
		<path d="M81,59.9c-0.2,0.2-0.6,0.4-0.8,0.6l-9.1-11.9c0.2-0.2,0.5-0.4,0.8-0.6L81,59.9z"/>
		<path d="M59.9,219L48,228.2c-0.2-0.2-0.3-0.5-0.6-0.8l12-9.1C59.5,218.5,59.7,218.7,59.9,219z"/>
		<path d="M228.3,251.9c-0.2,0.2-0.5,0.3-0.8,0.6l-9.2-11.8c0.2-0.2,0.5-0.3,0.8-0.6L228.3,251.9z"/>
		<path d="M251.9,71.7l-11.9,9.2c-0.2-0.2-0.3-0.5-0.6-0.8l11.9-9.1C251.5,71.1,251.7,71.4,251.9,71.7z"/>
	</g>
	<g>
		<path d="M89.1,54.3c-0.3,0.1-0.6,0.4-0.9,0.5l-8.1-12.7c0.3-0.1,0.6-0.4,0.9-0.5L89.1,54.3z"/>
		<path d="M54.3,211l-12.7,8.1c-0.1-0.3-0.4-0.6-0.5-0.9l12.7-8.1C53.9,210.4,54,210.6,54.3,211z"/>
		<path d="M219.1,258.4c-0.3,0.1-0.6,0.4-0.9,0.5l-8.1-12.7c0.3-0.1,0.6-0.4,0.9-0.5L219.1,258.4z"/>
		<path d="M258.4,80.9L245.7,89c-0.1-0.3-0.4-0.6-0.5-0.9l12.7-8.1C258,80.3,258.2,80.6,258.4,80.9z"/>
	</g>
	<g>
		<path d="M97.6,49.3c-0.3,0.1-0.6,0.3-0.9,0.4l-7-13.3c0.3-0.1,0.6-0.3,0.9-0.4L97.6,49.3z"/>
		<path d="M49.3,202.4L36,209.2c-0.1-0.3-0.3-0.6-0.4-0.9l13.3-6.9C49,201.8,49.2,202.1,49.3,202.4z"/>
		<path d="M209.3,264c-0.3,0.1-0.6,0.3-0.9,0.4l-7-13.3c0.3-0.1,0.6-0.3,0.9-0.4L209.3,264z"/>
		<path d="M264,90.7l-13.3,6.9c-0.1-0.3-0.3-0.6-0.4-0.9l13.3-6.9C263.6,90.1,263.8,90.3,264,90.7z"/>
	</g>
</g>
</svg>
